<svg width="73" height="66" viewBox="0 0 73 66" version="1.1" xmlns="http://www.w3.org/2000/svg" xmlns:xlink="http://www.w3.org/1999/xlink">
<title>@U&#221;</title>
<desc>Created using Figma</desc>
<g id="Canvas" transform="translate(-129 589)">
<g id="Designers">
<g id="Designers">
<use xlink:href="#path0_fill" transform="translate(128 -545)" fill="#FFFFFF"/>
</g>
<g id="Group">
<g id="Layer 1">
<g id="Vector">
<use xlink:href="#path1_fill" transform="translate(157 -589)" fill="#FFFFFF"/>
</g>
<g id="Vector">
<use xlink:href="#path2_fill" transform="translate(156.786 -586.529)" fill="#FFFFFF"/>
</g>
<g id="Vector">
<use xlink:href="#path3_fill" transform="translate(157 -589)" fill="#FFFFFF"/>
</g>
<g id="Vector">
<use xlink:href="#path4_fill" transform="translate(156.786 -586.529)" fill="#FFFFFF"/>
</g>
<g id="Vector">
<use xlink:href="#path5_fill" transform="translate(151.556 -553.923)" fill="#FFFFFF"/>
</g>
<g id="Vector">
<use xlink:href="#path6_fill" transform="translate(140 -580)" fill="#FFFFFF"/>
</g>
</g>
<g id="Ellipse 3">
<use xlink:href="#path7_fill" transform="translate(177.034 -556.385)" fill="#FC332F"/>
<mask id="mask0_outline_ins">
<use xlink:href="#path7_fill" fill="white" transform="translate(177.034 -556.385)"/>
</mask>
<g mask="url(#mask0_outline_ins)">
<use xlink:href="#path8_stroke_2x" transform="translate(177.034 -556.385)" fill="#FFFFFF"/>
</g>
</g>
<g id="Ellipse 3">
<use xlink:href="#path7_fill" transform="translate(145.444 -556.385)" fill="#FC332F"/>
<mask id="mask1_outline_ins">
<use xlink:href="#path7_fill" fill="white" transform="translate(145.444 -556.385)"/>
</mask>
<g mask="url(#mask1_outline_ins)">
<use xlink:href="#path8_stroke_2x" transform="translate(145.444 -556.385)" fill="#FFFFFF"/>
</g>
</g>
</g>
</g>
</g>
<defs>
<path id="path0_fill" d="M 5.392 18C 6.43733 18 7.33333 17.7707 8.08 17.312C 8.82667 16.8533 9.392 16.2133 9.776 15.392C 10.16 14.56 10.352 13.5947 10.352 12.496C 10.352 10.8747 9.936 9.57333 9.104 8.592C 8.272 7.61067 7.04533 7.12 5.424 7.12L 1.408 7.12L 1.408 18L 5.392 18ZM 5.488 8.656C 6.50133 8.656 7.25867 8.99733 7.76 9.68C 8.26133 10.352 8.512 11.296 8.512 12.512C 8.512 13.8347 8.22933 14.832 7.664 15.504C 7.10933 16.1653 6.34667 16.496 5.376 16.496L 3.2 16.496L 3.2 8.656L 5.488 8.656ZM 19.4495 14.064C 19.4495 12.8907 19.1562 11.9253 18.5695 11.168C 17.9828 10.4107 17.1188 10.032 15.9775 10.032C 15.1988 10.032 14.5215 10.2027 13.9455 10.544C 13.3802 10.8853 12.9428 11.3653 12.6335 11.984C 12.3348 12.592 12.1855 13.3013 12.1855 14.112C 12.1855 15.3707 12.5535 16.368 13.2895 17.104C 14.0362 17.8293 15.1135 18.192 16.5215 18.192C 17.5668 18.192 18.5215 17.8933 19.3855 17.296L 18.8415 15.984C 18.3828 16.2187 17.9882 16.3947 17.6575 16.512C 17.3375 16.6187 16.9695 16.672 16.5535 16.672C 15.0602 16.672 14.2335 15.9787 14.0735 14.592L 19.4495 14.592L 19.4495 14.064ZM 14.1055 13.392C 14.1802 12.816 14.3722 12.368 14.6815 12.048C 15.0015 11.728 15.4175 11.568 15.9295 11.568C 16.4308 11.568 16.8308 11.7227 17.1295 12.032C 17.4282 12.3413 17.6255 12.7947 17.7215 13.392L 14.1055 13.392ZM 21.1741 17.456C 21.4941 17.6907 21.9101 17.872 22.4221 18C 22.9448 18.1387 23.3981 18.208 23.7821 18.208C 24.8168 18.208 25.6061 18 26.1501 17.584C 26.7048 17.168 26.9821 16.5813 26.9821 15.824C 26.9821 14.7467 26.1021 13.8933 24.3421 13.264C 23.9048 13.1147 23.5635 12.9653 23.3181 12.816C 23.0728 12.6667 22.9448 12.5013 22.9341 12.32C 22.9341 12.0853 23.0461 11.888 23.2701 11.728C 23.4941 11.568 23.7715 11.488 24.1021 11.488C 24.4648 11.488 24.8008 11.536 25.1101 11.632C 25.4301 11.7173 25.7768 11.8453 26.1501 12.016L 26.7101 10.8C 26.3688 10.5653 25.9421 10.3787 25.4301 10.24C 24.9288 10.1013 24.4968 10.032 24.1341 10.032C 23.2168 10.032 22.4915 10.24 21.9581 10.656C 21.4248 11.0613 21.1581 11.6213 21.1581 12.336C 21.1581 13.36 22.0115 14.1493 23.7181 14.704C 24.7421 15.0347 25.2541 15.4347 25.2541 15.904C 25.2541 16.16 25.1101 16.3627 24.8221 16.512C 24.5341 16.6613 24.1875 16.736 23.7821 16.736C 23.1421 16.736 22.4541 16.56 21.7181 16.208L 21.1741 17.456ZM 30.0205 8.992C 30.3192 8.992 30.5698 8.89067 30.7725 8.688C 30.9858 8.47467 31.0925 8.21867 31.0925 7.92C 31.0925 7.632 30.9858 7.38667 30.7725 7.184C 30.5698 6.97067 30.3192 6.864 30.0205 6.864C 29.7325 6.864 29.4872 6.97067 29.2845 7.184C 29.0818 7.38667 28.9805 7.632 28.9805 7.92C 28.9805 8.21867 29.0765 8.47467 29.2685 8.688C 29.4712 8.89067 29.7218 8.992 30.0205 8.992ZM 29.1405 10.24L 29.1405 18L 30.9485 18L 30.9485 10.24L 29.1405 10.24ZM 40.4931 18.528C 40.4931 19.4987 40.1411 20.2667 39.4371 20.832C 38.7438 21.3973 37.7891 21.68 36.5731 21.68C 36.1891 21.68 35.6878 21.6053 35.0691 21.456C 34.4611 21.3067 33.9811 21.1093 33.6291 20.864L 34.1731 19.568C 34.6531 19.792 35.0638 19.9573 35.4051 20.064C 35.7571 20.1707 36.1305 20.224 36.5251 20.224C 37.1651 20.224 37.6825 20.0693 38.0771 19.76C 38.4825 19.4613 38.6851 19.0453 38.6851 18.512L 38.6851 17.68C 38.4078 17.8507 38.1198 17.9787 37.8211 18.064C 37.5225 18.16 37.2398 18.208 36.9731 18.208C 36.1838 18.208 35.4958 18.0373 34.9091 17.696C 34.3331 17.3547 33.8851 16.8747 33.5651 16.256C 33.2558 15.6373 33.1011 14.9173 33.1011 14.096C 33.1011 13.2853 33.2558 12.576 33.5651 11.968C 33.8851 11.3493 34.3385 10.8747 34.9251 10.544C 35.5225 10.2027 36.2158 10.032 37.0051 10.032C 37.3251 10.032 37.6825 10.1067 38.0771 10.256C 38.4718 10.4053 38.8238 10.608 39.1331 10.864L 39.5171 10.24L 40.4931 10.24L 40.4931 18.528ZM 37.0051 16.656C 37.3251 16.656 37.6185 16.608 37.8851 16.512C 38.1518 16.4053 38.4185 16.24 38.6851 16.016L 38.6851 12.208C 38.4291 11.984 38.1678 11.824 37.9011 11.728C 37.6345 11.6213 37.3358 11.568 37.0051 11.568C 36.3651 11.568 35.8585 11.8027 35.4851 12.272C 35.1225 12.7413 34.9411 13.344 34.9411 14.08C 34.9411 14.8587 35.1225 15.4827 35.4851 15.952C 35.8585 16.4213 36.3651 16.656 37.0051 16.656ZM 45.0325 12.576C 45.8965 11.8613 46.6538 11.504 47.3045 11.504C 48.1045 11.504 48.5045 12.0427 48.5045 13.12L 48.5045 18L 50.3125 18L 50.3125 13.008C 50.3125 12.0693 50.1098 11.3333 49.7045 10.8C 49.2992 10.256 48.6432 9.984 47.7365 9.984C 47.2672 9.984 46.7658 10.0907 46.2325 10.304C 45.6992 10.5173 45.2085 10.8053 44.7605 11.168L 44.4405 10.24L 43.2405 10.24L 43.2405 18L 45.0325 18L 45.0325 12.576ZM 59.6683 14.064C 59.6683 12.8907 59.3749 11.9253 58.7883 11.168C 58.2016 10.4107 57.3376 10.032 56.1963 10.032C 55.4176 10.032 54.7403 10.2027 54.1643 10.544C 53.5989 10.8853 53.1616 11.3653 52.8523 11.984C 52.5536 12.592 52.4043 13.3013 52.4043 14.112C 52.4043 15.3707 52.7723 16.368 53.5083 17.104C 54.2549 17.8293 55.3323 18.192 56.7403 18.192C 57.7856 18.192 58.7403 17.8933 59.6043 17.296L 59.0603 15.984C 58.6016 16.2187 58.2069 16.3947 57.8763 16.512C 57.5563 16.6187 57.1883 16.672 56.7723 16.672C 55.2789 16.672 54.4523 15.9787 54.2923 14.592L 59.6683 14.592L 59.6683 14.064ZM 54.3243 13.392C 54.3989 12.816 54.5909 12.368 54.9003 12.048C 55.2203 11.728 55.6363 11.568 56.1483 11.568C 56.6496 11.568 57.0496 11.7227 57.3483 12.032C 57.6469 12.3413 57.8443 12.7947 57.9403 13.392L 54.3243 13.392ZM 63.6169 13.056C 64.0435 12.672 64.5129 12.3467 65.0249 12.08C 65.5369 11.8133 65.9849 11.68 66.3689 11.68L 66.0009 10.24C 65.6275 10.24 65.1902 10.3733 64.6889 10.64C 64.1982 10.9067 63.7609 11.2 63.3769 11.52L 62.7849 10.24L 61.8249 10.24L 61.8249 18L 63.6169 18L 63.6169 13.056ZM 67.8179 17.456C 68.1379 17.6907 68.5539 17.872 69.0659 18C 69.5885 18.1387 70.0419 18.208 70.4259 18.208C 71.4605 18.208 72.2499 18 72.7939 17.584C 73.3485 17.168 73.6259 16.5813 73.6259 15.824C 73.6259 14.7467 72.7459 13.8933 70.9859 13.264C 70.5485 13.1147 70.2072 12.9653 69.9619 12.816C 69.7165 12.6667 69.5885 12.5013 69.5779 12.32C 69.5779 12.0853 69.6899 11.888 69.9139 11.728C 70.1379 11.568 70.4152 11.488 70.7459 11.488C 71.1085 11.488 71.4445 11.536 71.7539 11.632C 72.0739 11.7173 72.4205 11.8453 72.7939 12.016L 73.3539 10.8C 73.0125 10.5653 72.5859 10.3787 72.0739 10.24C 71.5725 10.1013 71.1405 10.032 70.7779 10.032C 69.8605 10.032 69.1352 10.24 68.6019 10.656C 68.0685 11.0613 67.8019 11.6213 67.8019 12.336C 67.8019 13.36 68.6552 14.1493 70.3619 14.704C 71.3859 15.0347 71.8979 15.4347 71.8979 15.904C 71.8979 16.16 71.7539 16.3627 71.4659 16.512C 71.1779 16.6613 70.8312 16.736 70.4259 16.736C 69.7859 16.736 69.0979 16.56 68.3619 16.208L 67.8179 17.456Z"/>
<path id="path1_fill" d="M 15.7484 0.137798C 15.5671 0.0499768 15.3111 0 15.0427 0L 0.957206 0C 0.690986 0 0.436756 0.0492023 0.255629 0.135732C 0.0745011 0.222262 -0.0172272 0.338376 0.00267817 0.45609L 1.37289 8.60705C 1.41014 8.82864 1.82641 9 2.32754 9L 13.4307 9C 13.9269 9 14.3409 8.83184 14.3843 8.61252L 15.9964 0.461614C 16.0197 0.343074 15.9298 0.225515 15.7484 0.137798Z"/>
<path id="path2_fill" d="M 14.1202 -5.45091e-07L 2.30792 -5.45091e-07L 0.0102919 14.5731C -0.0172667 14.7484 0.0108162 14.928 0.090977 15.0869L 7.3525 29.4796L 7.3525 12.7763C 6.47932 12.4345 5.85899 11.5916 5.85899 10.6062C 5.85899 9.31926 6.91544 8.27228 8.21404 8.27228C 9.51265 8.27228 10.5691 9.31926 10.5691 10.6062C 10.5691 11.5916 9.94887 12.4344 9.07559 12.7763L 9.07559 29.4796L 16.3371 15.0869C 16.4172 14.9282 16.4453 14.7485 16.4178 14.5731L 14.1202 -5.45091e-07Z"/>
<path id="path3_fill" d="M 0.957206 0C 0.690986 0 0.436756 0.0492023 0.255629 0.135732C 0.0745011 0.222262 -0.0172272 0.338376 0.00267817 0.45609L 1.37289 8.60705C 1.41014 8.82864 1.82641 9 2.32754 9L 7.81526 9L 7.81526 0L 0.957206 0Z"/>
<path id="path4_fill" d="M 2.30792 -5.45091e-07L 0.0102919 14.5731C -0.0172667 14.7484 0.0108162 14.928 0.090977 15.0869L 7.3525 29.4796L 7.3525 12.7763C 6.47932 12.4345 5.85899 11.5916 5.85899 10.6062C 5.85899 9.31926 6.91544 8.27228 8.21404 8.27228L 8.21404 -5.45091e-07L 2.30792 -5.45091e-07Z"/>
<path id="path5_fill" d="M 26.0158 2.46154L 0.873045 2.46154C 0.390816 2.46154 -5.18414e-07 1.91044 -5.18414e-07 1.23077C -5.18414e-07 0.551101 0.39071 2.11941e-06 0.873045 2.11941e-06L 26.0158 2.11941e-06C 26.4981 2.11941e-06 26.8889 0.551101 26.8889 1.23077C 26.8889 1.91044 26.4981 2.46154 26.0158 2.46154Z"/>
<path id="path6_fill" d="M 25 26C 11.2149 26 0 14.3998 0 1.03312C 0 0.508815 0.847934 0 1.38889 0C 1.92984 0 2.77778 0.508815 2.77778 1.03312C 2.77778 13.3528 12.2949 23.2632 25 23.2632C 37.7051 23.2632 47.2222 13.3526 47.2222 1.03312C 47.2222 0.508815 48.0702 0 48.6111 0C 49.1519 0 50 0.508815 50 1.03312C 50 14.3998 38.7851 26 25 26Z"/>
<path id="path7_fill" d="M 7.52137 3.69231C 7.52137 5.73151 5.83765 7.38462 3.76068 7.38462C 1.68372 7.38462 0 5.73151 0 3.69231C 0 1.6531 1.68372 0 3.76068 0C 5.83765 0 7.52137 1.6531 7.52137 3.69231Z"/>
<path id="path8_stroke_2x" d="M 5.52137 3.69231C 5.52137 4.5925 4.76784 5.38462 3.76068 5.38462L 3.76068 9.38461C 6.90747 9.38461 9.52137 6.87052 9.52137 3.69231L 5.52137 3.69231ZM 3.76068 5.38462C 2.75353 5.38462 2 4.5925 2 3.69231L -2 3.69231C -2 6.87052 0.613902 9.38461 3.76068 9.38461L 3.76068 5.38462ZM 2 3.69231C 2 2.79211 2.75353 2 3.76068 2L 3.76068 -2C 0.613902 -2 -2 0.514095 -2 3.69231L 2 3.69231ZM 3.76068 2C 4.76784 2 5.52137 2.79211 5.52137 3.69231L 9.52137 3.69231C 9.52137 0.514095 6.90747 -2 3.76068 -2L 3.76068 2Z"/>
</defs>
</svg>
