<svg width="83" height="61" viewBox="0 0 83 61" version="1.1" xmlns="http://www.w3.org/2000/svg" xmlns:xlink="http://www.w3.org/1999/xlink">
<title>@U&#192;</title>
<desc>Created using Figma</desc>
<g id="Canvas" transform="translate(-303 584)">
<g id="Developers">
<g id="Developers">
<use xlink:href="#path0_fill" transform="translate(302 -545)" fill="#FFFFFF"/>
</g>
<g id="Group 2">
<g id="Page 1">
<g id="Desktop HD">
<g id="Group 3">
<g id="Oval">
<use xlink:href="#path1_fill" transform="translate(331.244 -561.154)" fill="#FFFFFF"/>
</g>
<g id="Oval">
<use xlink:href="#path2_fill" transform="translate(341.189 -561.154)" fill="#FFFFFF"/>
</g>
<g id="Oval">
<use xlink:href="#path3_fill" transform="translate(351.134 -561.154)" fill="#FFFFFF"/>
</g>
<g id="Shape">
<use xlink:href="#path4_fill" transform="translate(316 -584)" fill="#FFFFFF"/>
</g>
<g id="Shape">
<use xlink:href="#path5_fill" transform="translate(360.242 -583.459)" fill="#FFFFFF"/>
</g>
</g>
</g>
</g>
</g>
</g>
</g>
<defs>
<path id="path0_fill" d="M 5.392 18C 6.43733 18 7.33333 17.7707 8.08 17.312C 8.82667 16.8533 9.392 16.2133 9.776 15.392C 10.16 14.56 10.352 13.5947 10.352 12.496C 10.352 10.8747 9.936 9.57333 9.104 8.592C 8.272 7.61067 7.04533 7.12 5.424 7.12L 1.408 7.12L 1.408 18L 5.392 18ZM 5.488 8.656C 6.50133 8.656 7.25867 8.99733 7.76 9.68C 8.26133 10.352 8.512 11.296 8.512 12.512C 8.512 13.8347 8.22933 14.832 7.664 15.504C 7.10933 16.1653 6.34667 16.496 5.376 16.496L 3.2 16.496L 3.2 8.656L 5.488 8.656ZM 19.4495 14.064C 19.4495 12.8907 19.1562 11.9253 18.5695 11.168C 17.9828 10.4107 17.1188 10.032 15.9775 10.032C 15.1988 10.032 14.5215 10.2027 13.9455 10.544C 13.3802 10.8853 12.9428 11.3653 12.6335 11.984C 12.3348 12.592 12.1855 13.3013 12.1855 14.112C 12.1855 15.3707 12.5535 16.368 13.2895 17.104C 14.0362 17.8293 15.1135 18.192 16.5215 18.192C 17.5668 18.192 18.5215 17.8933 19.3855 17.296L 18.8415 15.984C 18.3828 16.2187 17.9882 16.3947 17.6575 16.512C 17.3375 16.6187 16.9695 16.672 16.5535 16.672C 15.0602 16.672 14.2335 15.9787 14.0735 14.592L 19.4495 14.592L 19.4495 14.064ZM 14.1055 13.392C 14.1802 12.816 14.3722 12.368 14.6815 12.048C 15.0015 11.728 15.4175 11.568 15.9295 11.568C 16.4308 11.568 16.8308 11.7227 17.1295 12.032C 17.4282 12.3413 17.6255 12.7947 17.7215 13.392L 14.1055 13.392ZM 26.4381 10.24L 24.5501 15.408L 22.5821 9.952L 20.8381 10.528L 23.7181 18L 25.3181 18L 28.3101 10.24L 26.4381 10.24ZM 36.987 14.064C 36.987 12.8907 36.6937 11.9253 36.107 11.168C 35.5203 10.4107 34.6563 10.032 33.515 10.032C 32.7363 10.032 32.059 10.2027 31.483 10.544C 30.9177 10.8853 30.4803 11.3653 30.171 11.984C 29.8723 12.592 29.723 13.3013 29.723 14.112C 29.723 15.3707 30.091 16.368 30.827 17.104C 31.5737 17.8293 32.651 18.192 34.059 18.192C 35.1043 18.192 36.059 17.8933 36.923 17.296L 36.379 15.984C 35.9203 16.2187 35.5257 16.3947 35.195 16.512C 34.875 16.6187 34.507 16.672 34.091 16.672C 32.5977 16.672 31.771 15.9787 31.611 14.592L 36.987 14.592L 36.987 14.064ZM 31.643 13.392C 31.7177 12.816 31.9097 12.368 32.219 12.048C 32.539 11.728 32.955 11.568 33.467 11.568C 33.9683 11.568 34.3683 11.7227 34.667 12.032C 34.9657 12.3413 35.163 12.7947 35.259 13.392L 31.643 13.392ZM 39.3036 6.88L 39.3036 18L 41.0956 18L 41.0956 6.704L 39.3036 6.88ZM 51.4327 14.112C 51.4327 14.9227 51.2674 15.6373 50.9367 16.256C 50.6061 16.8747 50.1368 17.3547 49.5287 17.696C 48.9208 18.0373 48.2114 18.208 47.4008 18.208C 46.5901 18.208 45.8861 18.0373 45.2887 17.696C 44.6914 17.3547 44.2274 16.88 43.8967 16.272C 43.5767 15.6533 43.4168 14.9333 43.4168 14.112C 43.4168 13.3013 43.5767 12.592 43.8967 11.984C 44.2274 11.3653 44.6968 10.8853 45.3047 10.544C 45.9128 10.2027 46.6221 10.032 47.4328 10.032C 48.2434 10.032 48.9474 10.2027 49.5448 10.544C 50.1528 10.8747 50.6167 11.3493 50.9367 11.968C 51.2674 12.5867 51.4327 13.3013 51.4327 14.112ZM 47.4008 16.656C 48.0514 16.656 48.5741 16.416 48.9688 15.936C 49.3741 15.456 49.5767 14.8533 49.5767 14.128C 49.5767 13.3707 49.3794 12.7573 48.9847 12.288C 48.6007 11.808 48.0834 11.568 47.4328 11.568C 46.7927 11.568 46.2701 11.808 45.8647 12.288C 45.4701 12.768 45.2674 13.376 45.2568 14.112C 45.2568 14.8693 45.4488 15.4827 45.8328 15.952C 46.2274 16.4213 46.7501 16.656 47.4008 16.656ZM 56.9954 10.032C 57.7847 10.032 58.4727 10.2027 59.0594 10.544C 59.646 10.8747 60.094 11.3493 60.4034 11.968C 60.7234 12.5867 60.8834 13.312 60.8834 14.144C 60.8834 14.944 60.7234 15.6533 60.4034 16.272C 60.0834 16.88 59.6247 17.3547 59.0274 17.696C 58.4407 18.0373 57.7527 18.208 56.9634 18.208C 56.494 18.208 55.998 18.0693 55.4754 17.792L 55.4754 21.328L 53.6834 21.504L 53.6834 10.24L 54.6274 10.24L 55.0114 10.752C 55.3207 10.5173 55.6514 10.3413 56.0034 10.224C 56.3554 10.096 56.686 10.032 56.9954 10.032ZM 56.9634 16.656C 57.6034 16.656 58.1047 16.4213 58.4674 15.952C 58.8407 15.4827 59.0274 14.88 59.0274 14.144C 59.0274 13.376 58.846 12.7573 58.4834 12.288C 58.1207 11.808 57.614 11.568 56.9634 11.568C 56.686 11.568 56.4247 11.6107 56.1794 11.696C 55.9447 11.7813 55.71 11.9093 55.4754 12.08L 55.4754 16.176C 55.9127 16.496 56.4087 16.656 56.9634 16.656ZM 69.8276 14.064C 69.8276 12.8907 69.5343 11.9253 68.9476 11.168C 68.361 10.4107 67.497 10.032 66.3556 10.032C 65.577 10.032 64.8996 10.2027 64.3236 10.544C 63.7583 10.8853 63.321 11.3653 63.0116 11.984C 62.713 12.592 62.5636 13.3013 62.5636 14.112C 62.5636 15.3707 62.9316 16.368 63.6676 17.104C 64.4143 17.8293 65.4916 18.192 66.8996 18.192C 67.945 18.192 68.8996 17.8933 69.7636 17.296L 69.2196 15.984C 68.761 16.2187 68.3663 16.3947 68.0356 16.512C 67.7156 16.6187 67.3476 16.672 66.9316 16.672C 65.4383 16.672 64.6116 15.9787 64.4516 14.592L 69.8276 14.592L 69.8276 14.064ZM 64.4836 13.392C 64.5583 12.816 64.7503 12.368 65.0596 12.048C 65.3796 11.728 65.7956 11.568 66.3076 11.568C 66.809 11.568 67.209 11.7227 67.5076 12.032C 67.8063 12.3413 68.0036 12.7947 68.0996 13.392L 64.4836 13.392ZM 73.7763 13.056C 74.2029 12.672 74.6723 12.3467 75.1843 12.08C 75.6963 11.8133 76.1443 11.68 76.5283 11.68L 76.1603 10.24C 75.7869 10.24 75.3496 10.3733 74.8483 10.64C 74.3576 10.9067 73.9203 11.2 73.5363 11.52L 72.9443 10.24L 71.9843 10.24L 71.9843 18L 73.7763 18L 73.7763 13.056ZM 77.9773 17.456C 78.2973 17.6907 78.7133 17.872 79.2253 18C 79.7479 18.1387 80.2013 18.208 80.5853 18.208C 81.6199 18.208 82.4093 18 82.9533 17.584C 83.5079 17.168 83.7853 16.5813 83.7853 15.824C 83.7853 14.7467 82.9053 13.8933 81.1453 13.264C 80.7079 13.1147 80.3666 12.9653 80.1213 12.816C 79.8759 12.6667 79.7479 12.5013 79.7373 12.32C 79.7373 12.0853 79.8493 11.888 80.0733 11.728C 80.2973 11.568 80.5746 11.488 80.9053 11.488C 81.2679 11.488 81.6039 11.536 81.9133 11.632C 82.2333 11.7173 82.5799 11.8453 82.9533 12.016L 83.5133 10.8C 83.1719 10.5653 82.7453 10.3787 82.2333 10.24C 81.7319 10.1013 81.2999 10.032 80.9373 10.032C 80.0199 10.032 79.2946 10.24 78.7613 10.656C 78.2279 11.0613 77.9613 11.6213 77.9613 12.336C 77.9613 13.36 78.8146 14.1493 80.5213 14.704C 81.5453 15.0347 82.0573 15.4347 82.0573 15.904C 82.0573 16.16 81.9133 16.3627 81.6253 16.512C 81.3373 16.6613 80.9906 16.736 80.5853 16.736C 79.9453 16.736 79.2573 16.56 78.5213 16.208L 77.9773 17.456Z"/>
<path id="path1_fill" d="M 3.72935 7.61531C 5.78902 7.61531 7.4587 5.91056 7.4587 3.80765C 7.4587 1.70474 5.78902 0 3.72935 0C 1.66969 0 0 1.70474 0 3.80765C 0 5.91056 1.66969 7.61531 3.72935 7.61531Z"/>
<path id="path2_fill" d="M 3.72935 7.61531C 5.78902 7.61531 7.45871 5.91056 7.45871 3.80765C 7.45871 1.70474 5.78902 0 3.72935 0C 1.66969 0 0 1.70474 0 3.80765C 0 5.91056 1.66969 7.61531 3.72935 7.61531Z"/>
<path id="path3_fill" d="M 3.72935 7.61531C 5.78902 7.61531 7.45871 5.91056 7.45871 3.80765C 7.45871 1.70474 5.78902 0 3.72935 0C 1.66969 0 0 1.70474 0 3.80765C 0 5.91056 1.66969 7.61531 3.72935 7.61531Z"/>
<path id="path4_fill" d="M 7.53442 1.45762C 5.80243 2.55909 4.55534 4.87849 4.55534 6.9919L 4.55534 10.6172L 0.667063 14.5902C -0.222354 15.4955 -0.222354 16.963 0.667063 17.8684L 4.55534 21.8629L 4.55534 25.4667C 4.55534 27.5628 5.80219 29.8993 7.53442 31.001L 9.27178 32.1058C 10.3389 32.7845 11.7446 32.4544 12.4116 31.3686C 13.0785 30.2828 12.7541 28.8525 11.687 28.1738L 9.94965 27.0689C 9.56262 26.8228 9.11235 25.979 9.11235 25.4667L 9.11235 20.8661C 9.11235 20.2514 8.87241 19.6618 8.44528 19.2271L 5.51298 16.2163L 8.44528 13.2315C 8.87241 12.7967 9.11235 12.2072 9.11235 11.5924L 9.11235 6.9919C 9.11235 6.46771 9.55812 5.63864 9.94965 5.38964L 11.687 4.28475C 12.7541 3.60611 13.0785 2.17576 12.4116 1.08996C 11.7446 0.00416062 10.3389 -0.325911 9.27178 0.352723L 7.53442 1.45762Z"/>
<path id="path5_fill" d="M 5.22379 1.45762C 6.95577 2.55909 8.20286 4.87849 8.20286 6.9919L 8.20286 10.6172L 12.0911 14.5902C 12.9806 15.4955 12.9806 16.963 12.0911 17.8684L 8.20286 21.8629L 8.20286 25.4667C 8.20286 27.5628 6.95601 29.8993 5.22379 31.001L 3.48643 32.1058C 2.41933 32.7845 1.0136 32.4544 0.346649 31.3686C -0.3203 30.2828 0.00408983 28.8525 1.07119 28.1738L 2.80855 27.0689C 3.19558 26.8228 3.64586 25.979 3.64586 25.4667L 3.64586 20.8661C 3.64586 20.2514 3.8858 19.6618 4.31292 19.2271L 7.24522 16.2163L 4.31292 13.2315C 3.8858 12.7967 3.64586 12.2072 3.64586 11.5924L 3.64586 6.9919C 3.64586 6.46771 3.20008 5.63864 2.80855 5.38964L 1.07119 4.28475C 0.00408983 3.60611 -0.3203 2.17576 0.346649 1.08996C 1.0136 0.00416052 2.41933 -0.325911 3.48643 0.352723"/>
</defs>
</svg>
