<svg width="18" height="18" viewBox="0 0 18 18" version="1.1" xmlns="http://www.w3.org/2000/svg" xmlns:xlink="http://www.w3.org/1999/xlink">
<title>LinkedIn</title>
<desc>Created using Figma</desc>
<g id="Canvas" transform="translate(-1626 -340)">
<g id="LinkedIn">
<use xlink:href="#path0_fill" transform="translate(1626.39 340.857)" fill="#FFFFFF"/>
</g>
</g>
<defs>
<path id="path0_fill" d="M 17.5569 10.0899L 17.5569 16.4571L 13.7939 16.4571L 13.7939 10.5163C 13.7939 9.02391 13.2496 8.00542 11.8875 8.00542C 10.8478 8.00542 10.229 8.69181 9.95676 9.35578C 9.85749 9.59314 9.83194 9.92353 9.83194 10.2558L 9.83194 16.4571L 6.06766 16.4571C 6.06766 16.4571 6.11835 6.39531 6.06766 5.35283L 9.83157 5.35283L 9.83157 6.92682C 9.82394 6.93859 9.81402 6.95129 9.80684 6.9627L 9.83157 6.9627L 9.83157 6.92682C 10.3316 6.17128 11.2247 5.09196 13.2237 5.09196C 15.7003 5.09192 17.5569 6.67904 17.5569 10.0899ZM 2.13006 -1.55801e-08C 0.842299 -1.55801e-08 0 0.828579 0 1.91819C 0 2.98405 0.81793 3.83778 2.08009 3.83778L 2.10524 3.83778C 3.41793 3.83778 4.23431 2.98421 4.23431 1.91819C 4.20958 0.828579 3.41793 -1.55801e-08 2.13006 -1.55801e-08ZM 0.223565 16.4571L 3.98642 16.4571L 3.98642 5.35283L 0.223565 5.35283L 0.223565 16.4571Z"/>
</defs>
</svg>
