<svg width="7" height="32" viewBox="0 0 7 32" version="1.1" xmlns="http://www.w3.org/2000/svg" xmlns:xlink="http://www.w3.org/1999/xlink">
<title>Vector</title>
<desc>Created using Figma</desc>
<g id="Canvas" transform="translate(182 5)">
<g id="Vector">
<use xlink:href="#path0_fill" transform="translate(-181.364 -4.01685)" fill="url(#paint0_linear)"/>
</g>
</g>
<defs>
<linearGradient id="paint0_linear" x1="0" y1="0" x2="1" y2="0" gradientUnits="userSpaceOnUse" gradientTransform="matrix(-18.7903 2821 -488.548 -108.5 426.183 260.673)">
<stop offset="0" stop-color="#AB0000"/>
<stop offset="1" stop-color="#670000"/>
</linearGradient>
<path id="path0_fill" fill-rule="evenodd" d="M 4.31874 0.026428C 4.00565 1.10997 3.6143 2.19352 3.35339 3.3035C 2.93595 5.12702 2.51851 6.95055 2.2576 8.80051C 2.07497 9.98977 2.33587 11.2319 2.8055 12.3419C 2.98813 12.7647 3.40558 13.1347 3.77084 13.4254C 4.57964 14.0597 5.07535 14.4297 5.31017 16.0682C 5.4928 17.3632 5.20581 18.5524 5.02317 19.821C 4.78836 21.4595 4.34483 23.098 3.84911 24.6837C 3.19685 26.8244 2.41414 28.9122 1.57925 31C 1.65753 30.2336 1.70971 29.4672 1.81407 28.7272C 2.02279 27.1151 2.23151 25.503 2.46633 23.9173C 2.70114 22.2523 2.57069 20.5874 1.9967 19.0017C 1.81407 18.4467 1.42271 17.9446 1.03136 17.5217C 0.353011 16.8346 0.118198 16.0418 0.0399268 15.1168C -0.220976 11.1526 0.822636 7.45269 2.41414 3.88491C 2.96204 2.66922 3.53603 1.47997 4.08392 0.26428C 4.1361 0.184996 4.18828 0.0792839 4.24047 2.25158e-28C 4.26656 -2.81673e-15 4.29265 0.026428 4.31874 0.026428Z"/>
</defs>
</svg>
