<svg width="119" height="32" viewBox="0 0 119 32" version="1.1" xmlns="http://www.w3.org/2000/svg" xmlns:xlink="http://www.w3.org/1999/xlink">
<title>SDSLabs Logo_colored-05</title>
<desc>Created using Figma</desc>
<g id="Canvas" transform="translate(1727 880)">
<g id="SDSLabs Logo_colored-05">
<g id="Group">
<g id="Group">
<g id="Vector">
<use xlink:href="#path0_fill" transform="translate(-1721.36 -879.017)" fill="url(#paint0_linear)"/>
</g>
<g id="Vector">
<use xlink:href="#path1_fill" transform="translate(-1727 -878.938)" fill="url(#paint1_linear)"/>
</g>
<g id="Vector">
<use xlink:href="#path2_fill" transform="translate(-1719.5 -873.335)" fill="url(#paint2_linear)"/>
</g>
</g>
<g id="Group">
<g id="Vector">
<use xlink:href="#path3_fill" transform="translate(-1687.85 -869.911)" fill="url(#paint3_linear)"/>
</g>
<g id="Vector">
<use xlink:href="#path4_fill" transform="translate(-1670.48 -869.975)" fill="url(#paint4_linear)"/>
</g>
<g id="Vector">
<use xlink:href="#path5_fill" transform="translate(-1704.43 -869.851)" fill="url(#paint5_linear)"/>
</g>
<g id="Vector">
<use xlink:href="#path6_fill" transform="translate(-1629.34 -869.61)" fill="url(#paint6_linear)"/>
</g>
<g id="Vector">
<use xlink:href="#path7_fill" transform="translate(-1642.12 -865.128)" fill="url(#paint7_linear)"/>
</g>
<g id="Vector">
<use xlink:href="#path8_fill" transform="translate(-1653.98 -869.875)" fill="url(#paint8_linear)"/>
</g>
<g id="Vector">
<use xlink:href="#path9_fill" transform="translate(-1617.05 -865.068)" fill="url(#paint9_linear)"/>
</g>
</g>
</g>
</g>
</g>
<defs>
<linearGradient id="paint0_linear" x1="0" y1="0" x2="1" y2="0" gradientUnits="userSpaceOnUse" gradientTransform="matrix(-18.7903 2821 -488.548 -108.5 426.183 260.673)">
<stop offset="0" stop-color="#AB0000"/>
<stop offset="1" stop-color="#670000"/>
</linearGradient>
<linearGradient id="paint1_linear" x1="0" y1="0" x2="1" y2="0" gradientUnits="userSpaceOnUse" gradientTransform="matrix(0 2138.24 -840.141 0 597.57 -200.899)">
<stop offset="0.016129" stop-color="#2B2B2B"/>
<stop offset="1" stop-color="#000208"/>
</linearGradient>
<linearGradient id="paint2_linear" x1="0" y1="0" x2="1" y2="0" gradientUnits="userSpaceOnUse" gradientTransform="matrix(-29.8677 2443.06 -776.57 -93.9627 762.272 587.161)">
<stop offset="0" stop-color="#000208"/>
<stop offset="0.9839" stop-color="#2B2B2B"/>
</linearGradient>
<linearGradient id="paint3_linear" x1="0" y1="0" x2="1" y2="0" gradientUnits="userSpaceOnUse" gradientTransform="matrix(0 1118.2 -1301.59 0 2945.54 509.636)">
<stop offset="0" stop-color="#000208"/>
<stop offset="0.9839" stop-color="#2B2B2B"/>
</linearGradient>
<linearGradient id="paint4_linear" x1="0" y1="0" x2="1" y2="0" gradientUnits="userSpaceOnUse" gradientTransform="matrix(0 1114.63 -1221.4 0 3477.08 508.011)">
<stop offset="0" stop-color="#000208"/>
<stop offset="0.9839" stop-color="#2B2B2B"/>
</linearGradient>
<linearGradient id="paint5_linear" x1="0" y1="0" x2="1" y2="0" gradientUnits="userSpaceOnUse" gradientTransform="matrix(0 1105.96 -1230.14 0 2065.06 504.058)">
<stop offset="0" stop-color="#000208"/>
<stop offset="0.9839" stop-color="#2B2B2B"/>
</linearGradient>
<linearGradient id="paint6_linear" x1="0" y1="0" x2="1" y2="0" gradientUnits="userSpaceOnUse" gradientTransform="matrix(0 1089.33 -973.52 0 4104.55 496.481)">
<stop offset="0" stop-color="#000208"/>
<stop offset="0.9839" stop-color="#2B2B2B"/>
</linearGradient>
<linearGradient id="paint7_linear" x1="0" y1="0" x2="1" y2="0" gradientUnits="userSpaceOnUse" gradientTransform="matrix(0 698.762 -976.848 0 3688.96 318.472)">
<stop offset="0" stop-color="#000208"/>
<stop offset="0.9839" stop-color="#2B2B2B"/>
</linearGradient>
<linearGradient id="paint8_linear" x1="0" y1="0" x2="1" y2="0" gradientUnits="userSpaceOnUse" gradientTransform="matrix(0 1108.89 -957.237 0 3220.01 505.395)">
<stop offset="0" stop-color="#000208"/>
<stop offset="0.9839" stop-color="#2B2B2B"/>
</linearGradient>
<linearGradient id="paint9_linear" x1="0" y1="0" x2="1" y2="0" gradientUnits="userSpaceOnUse" gradientTransform="matrix(0 693.293 -787.103 0 3623.57 315.979)">
<stop offset="0" stop-color="#000208"/>
<stop offset="0.9839" stop-color="#2B2B2B"/>
</linearGradient>
<path id="path0_fill" fill-rule="evenodd" d="M 4.31874 0.026428C 4.00565 1.10997 3.6143 2.19352 3.35339 3.3035C 2.93595 5.12702 2.51851 6.95055 2.2576 8.80051C 2.07497 9.98977 2.33587 11.2319 2.8055 12.3419C 2.98813 12.7647 3.40558 13.1347 3.77084 13.4254C 4.57964 14.0597 5.07535 14.4297 5.31017 16.0682C 5.4928 17.3632 5.20581 18.5524 5.02317 19.821C 4.78836 21.4595 4.34483 23.098 3.84911 24.6837C 3.19685 26.8244 2.41414 28.9122 1.57925 31C 1.65753 30.2336 1.70971 29.4672 1.81407 28.7272C 2.02279 27.1151 2.23151 25.503 2.46633 23.9173C 2.70114 22.2523 2.57069 20.5874 1.9967 19.0017C 1.81407 18.4467 1.42271 17.9446 1.03136 17.5217C 0.353011 16.8346 0.118198 16.0418 0.0399268 15.1168C -0.220976 11.1526 0.822636 7.45269 2.41414 3.88491C 2.96204 2.66922 3.53603 1.47997 4.08392 0.26428C 4.1361 0.184996 4.18828 0.0792839 4.24047 2.25158e-28C 4.26656 -2.81673e-15 4.29265 0.026428 4.31874 0.026428Z"/>
<path id="path1_fill" fill-rule="evenodd" d="M 1.73625 24.4724C 0.875275 23.8117 0.45783 22.9925 0.223017 22.0675C -0.220518 20.1911 0.0664756 18.3147 0.48392 16.4912C 1.37099 12.6591 3.17122 9.22349 5.28453 5.94642C 6.61514 3.88504 9.56334 -0.0262947 9.61553 0.000133249C 9.53725 0.185129 9.45898 0.343697 9.38071 0.502265C 7.84138 3.38291 6.27597 6.26356 5.20626 9.38206C 4.52792 11.2849 4.13656 13.2405 4.11047 15.2755C 4.08438 16.5176 4.34528 17.6804 5.04972 18.7376C 5.12799 18.8433 5.15408 19.0811 5.1019 19.1604C 3.98002 20.9311 2.85814 22.6753 1.73625 24.4724Z"/>
<path id="path2_fill" fill-rule="evenodd" d="M -1.99053e-07 25.318C 0.834889 23.283 1.69587 21.2481 2.47858 19.1867C 3.4961 16.5439 4.27881 13.8218 4.35708 10.9412C 4.40926 9.1705 4.25272 7.42626 3.07865 5.97272C 3.00038 5.89344 2.97429 5.68201 3.02647 5.5763C 3.96573 3.72634 4.93107 1.90281 5.9225 1.87782e-15C 6.67912 0.475703 7.12265 1.05712 7.43573 1.74425C 7.98363 2.9335 8.08799 4.20205 8.03581 5.47059C 7.98363 8.13981 7.35746 10.7033 6.4443 13.1876C 4.8267 17.5217 2.55685 21.4859 -1.99053e-07 25.318Z"/>
<path id="path3_fill" fill-rule="evenodd" d="M 0 0.0358932C 3.50087 0.0358932 6.90171 -0.0638106 10.3026 0.0691271C 12.6031 0.16883 14.3035 1.93026 14.7703 4.48931C 15.0704 6.25073 15.0704 8.01216 14.3702 9.70712C 13.57 11.6347 12.0697 12.7315 10.0025 12.7979C 6.76834 12.8976 3.53421 12.8312 0.333416 12.8312C 0.233391 12.8312 0.16671 12.7979 0.0333436 12.7315C 2.03451e-06 8.51068 0 4.32314 0 0.0358932ZM 2.9674 1.56468C 2.9674 4.85489 2.9674 8.01216 2.9674 11.2359C 5.16795 11.2359 7.30181 11.2027 9.43567 11.2359C 10.4693 11.2691 11.1361 10.8039 11.4362 9.90652C 12.2364 7.58011 12.2697 5.22047 11.4028 2.92729C 11.2028 2.3623 10.4359 1.66438 9.90245 1.63115C 7.60188 1.46497 5.30131 1.56468 2.9674 1.56468Z"/>
<path id="path4_fill" fill-rule="evenodd" d="M 1.63483 12.7953C 1.63483 12.2635 1.63483 11.8315 1.63483 11.2997C 2.60173 11.2997 3.50195 11.2997 4.43552 11.2997C 6.03591 11.2997 7.66965 11.2997 9.27005 11.2997C 10.5037 11.2665 11.4039 10.4356 11.4039 9.30564C 11.4039 8.1092 10.537 7.31158 9.20337 7.27834C 7.66965 7.27834 6.16928 7.31158 4.63557 7.24511C 3.83537 7.21187 3.00183 7.11217 2.26831 6.84629C 0.801284 6.38101 0.0344319 5.21781 0.00109029 3.65579C -0.0322513 2.22671 0.70126 1.03027 2.10161 0.465282C 2.60173 0.265875 3.16854 0.132938 3.702 0.0664694C 4.13544 5.05136e-07 4.56889 2.53559e-07 5.00233 2.53559e-07C 7.40292 2.53559e-07 9.77017 2.53559e-07 12.2708 2.53559e-07C 12.2708 0.498517 12.2708 0.930565 12.2708 1.49555C 11.1705 1.49555 10.0702 1.49555 8.96998 1.49555C 7.73634 1.49555 6.46936 1.49555 5.23572 1.49555C 3.5353 1.49555 2.70176 2.16024 2.70176 3.48962C 2.66841 4.81899 3.60198 5.55015 5.3024 5.55015C 6.73609 5.55015 8.16978 5.51692 9.60347 5.58339C 10.437 5.61662 11.2705 5.78279 12.0374 6.0819C 13.3711 6.61365 14.0046 7.71039 14.0379 9.13947C 14.0712 10.5353 13.4044 11.5324 12.2041 12.1306C 11.604 12.4297 10.9038 12.7288 10.2703 12.7288C 7.40292 12.8617 4.56889 12.7953 1.63483 12.7953Z"/>
<path id="path5_fill" fill-rule="evenodd" d="M 12.4046 0.0083081C 12.4046 0.47359 12.4046 0.872405 12.4046 1.43739C 11.271 1.43739 10.1374 1.43739 9.00375 1.43739C 7.63674 1.43739 6.26973 1.43739 4.90273 1.43739C 3.56907 1.47062 2.76887 2.26825 2.83555 3.53116C 2.86889 4.7276 3.66909 5.49199 4.93607 5.52523C 6.50313 5.52523 8.10352 5.49199 9.67058 5.55846C 10.4708 5.59169 11.271 5.72463 12.0378 5.99051C 13.4382 6.52226 14.105 7.619 14.1383 9.08131C 14.1717 10.5104 13.5049 11.5074 12.2379 12.1056C 11.6711 12.3715 11.0042 12.6706 10.3708 12.6706C 7.53672 12.7371 4.66934 12.7039 1.73528 12.7039C 1.73528 12.2386 1.73528 11.7733 1.73528 11.2416C 2.10204 11.2416 2.40211 11.2416 2.73553 11.2416C 4.93607 11.2416 7.13662 11.2416 9.33716 11.2416C 10.5708 11.2416 11.4377 10.3775 11.4377 9.21425C 11.4377 8.05104 10.6041 7.22018 9.33716 7.22018C 7.70342 7.18695 6.03634 7.28665 4.40261 7.15371C 3.50238 7.08724 2.53548 6.92107 1.73528 6.48902C -0.498609 5.32582 -0.598634 2.03561 1.56857 0.739466C 2.16872 0.373887 2.90223 0.0415433 3.56907 0.0415433C 6.53647 -0.0249256 9.43719 0.0083081 12.4046 0.0083081Z"/>
<path id="path6_fill" fill-rule="evenodd" d="M 0.036011 -2.53559e-07C 0.736185 -2.53559e-07 1.36967 -2.53559e-07 2.13653 -2.53559e-07C 2.13653 1.49555 2.13653 2.92463 2.13653 4.48665C 3.43685 4.48665 4.60381 4.48665 5.8041 4.48665C 6.2042 4.48665 6.6043 4.48665 7.0044 4.48665C 9.87178 4.42018 11.8723 6.38101 10.9721 9.97034C 10.572 11.4991 9.23829 12.4297 7.43784 12.4962C 6.2042 12.5294 4.93723 12.5294 3.70359 12.4962C 1.66975 12.4297 0.169379 11.2332 0.0693546 9.33888C -0.0640118 6.24808 0.036011 3.12404 0.036011 -2.53559e-07ZM 2.13653 5.9822C 2.20321 7.37805 2.23656 8.64096 2.36992 9.90386C 2.46995 10.7015 3.00341 11.1335 3.8703 11.1003C 4.97057 11.0671 6.10418 11.1003 7.20445 11.0671C 8.27139 11.0338 8.77151 10.6683 8.87153 9.60475C 8.97156 8.80713 8.93822 8.0095 8.83819 7.21187C 8.77151 6.58042 8.40475 5.9822 7.67124 5.9822C 5.90413 5.94897 4.10368 5.9822 2.13653 5.9822Z"/>
<path id="path7_fill" fill-rule="evenodd" d="M 11.2133 7.98141C 8.51265 7.98141 5.91201 8.11434 3.31136 7.94817C 1.01079 7.782 -0.122819 6.12028 0.0105476 3.62769C 0.110572 1.46746 1.47757 0.13808 3.71146 0.0383763C 4.9451 0.00514189 6.17874 -0.0280925 7.44572 0.0383763C 9.74629 0.13808 11.1466 1.56716 11.2133 3.89357C 11.2467 5.22295 11.2133 6.51909 11.2133 7.98141ZM 9.01278 6.55233C 9.01278 5.45559 9.01278 4.52503 9.01278 3.56123C 9.01278 3.29535 8.94609 2.99624 8.91275 2.73037C 8.74604 1.83304 8.24592 1.36775 7.31236 1.40099C 6.5455 1.43422 5.77864 1.43422 4.97844 1.43422C 2.51117 1.50069 2.11106 1.93274 2.27777 4.42532C 2.31111 4.82413 2.27778 5.28942 2.51117 5.58853C 2.7779 5.98734 3.24468 6.48586 3.64478 6.48586C 5.3452 6.6188 7.11231 6.55233 9.01278 6.55233Z"/>
<path id="path8_fill" fill-rule="evenodd" d="M 2.03501e-06 0C 1.13362 0 2.03384 0 3.06743 0C 3.06743 2.06054 3.03409 4.0546 3.06743 6.04867C 3.10077 7.07894 3.13411 8.1092 3.33416 9.10624C 3.70092 10.7015 4.36775 11.2997 6.00149 11.2C 7.63523 11.1335 9.26897 11.1668 11.0027 11.1668C 11.0027 11.6985 11.0027 12.197 11.0027 12.6956C 8.86887 12.6956 6.735 12.8285 4.63448 12.6623C 2.40059 12.4629 0.666831 10.9009 0.366757 8.60772C 0.0666822 5.81603 0.133368 2.92463 2.03501e-06 0Z"/>
<path id="path9_fill" fill-rule="evenodd" d="M 7.81276 0.0443121C 7.81276 0.409891 7.81276 0.77547 7.81276 1.27399C 6.17902 1.27399 4.61197 1.24075 3.04491 1.30722C 2.64482 1.34046 2.11135 1.63957 1.94465 1.93868C 1.81128 2.20455 2.01133 2.76954 2.24472 3.10188C 2.41143 3.33452 2.84486 3.40099 3.14494 3.40099C 4.14518 3.43423 5.14544 3.40099 6.11235 3.43423C 8.01282 3.5007 9.07974 4.36479 9.0464 5.7274C 9.01306 6.99031 7.77942 7.92088 6.079 7.95411C 4.47861 7.98735 2.8782 7.95411 1.17778 7.95411C 1.17778 7.52206 1.17778 7.15648 1.17778 6.6912C 1.81127 6.6912 2.47811 6.6912 3.1116 6.6912C 4.07851 6.6912 5.04541 6.72444 6.01231 6.6912C 6.64581 6.6912 7.24596 6.49179 7.24596 5.7274C 7.24596 4.96301 6.74583 4.63067 6.04566 4.63067C 5.07875 4.63067 4.11184 4.6639 3.14494 4.59743C 2.61147 4.5642 2.01132 4.49773 1.5112 4.29832C 0.510951 3.93274 -0.0891979 2.93571 0.0108269 1.97191C 0.110852 1.00811 0.877708 0.110781 2.01132 0.0443121C 3.94514 -0.0553913 5.8456 0.0443121 7.81276 0.0443121Z"/>
</defs>
</svg>
